<svg width="123" height="87" viewBox="0 0 123 87" fill="none" xmlns="http://www.w3.org/2000/svg">
<path fill-rule="evenodd" clip-rule="evenodd" d="M40.3839 4.99199C38.6749 7.64539 37.8879 10.9734 37.1234 14.1889C36.5612 16.4826 34.9647 24.3753 34.7848 30.2442C34.44 30.3192 34.0877 30.3942 33.7279 30.4691C32.2663 30.7839 30.7372 31.2337 29.2981 31.7508C29.0133 31.8558 28.7359 31.9607 28.4661 32.0657C28.2112 32.1706 27.9564 32.2755 27.7015 32.3805C27.2518 32.5828 26.8246 32.7852 26.4423 32.9876L26.4198 33.0101H26.3973C25.8577 33.3249 24.2386 34.4717 20.9107 38.7216L20.8882 38.7441L20.8657 38.7666C17.7176 42.7917 13.9623 48.3233 9.75737 55.2492C0.650368 70.2026 -0.159142 75.7343 0.020752 78.6126V78.635C0.0357437 78.785 0.0507355 78.9199 0.0657272 79.0398C0.470482 82.5027 3.10139 84.9537 7.17143 85.6508C9.8698 86.5278 13.2203 87 16.9081 87C18.3472 87 19.8538 86.91 21.3829 86.7751C22.1699 86.7077 23.0918 86.6177 24.1037 86.5278C33.548 85.6958 51.2898 84.2791 51.4697 84.2567L52.2118 84.1892L52.8189 83.7395C62.5105 76.3414 63.0052 74.9473 63.2526 74.2727L64.3994 71.1246L61.0489 70.8547C60.959 70.8547 51.5597 70.1127 35.999 68.0439C35.4819 67.9765 34.7173 67.954 33.7504 67.954C31.9965 67.954 28.8933 68.0664 25.4529 68.4712C25.7377 68.3662 26.0301 68.2763 26.3299 68.2013C28.6685 67.5268 30.6922 65.9977 32.0414 63.9289C34.6499 59.8589 36.1115 56.7108 36.5162 54.3047C36.6062 53.7426 36.876 52.0786 35.8416 46.2996C35.9166 46.2996 35.9841 46.2996 36.044 46.2996C36.831 46.3895 37.798 46.4795 38.8548 46.4795C45.6007 46.4795 50.3904 42.297 53.471 33.7072C55.8995 26.8713 58.6204 22.5539 61.5436 20.8674C62.5555 20.2828 63.8822 19.9904 65.4788 19.9904C65.8385 19.9904 66.2058 20.0054 66.5806 20.0354C67.525 20.1029 68.3795 20.2603 69.0766 20.4177C68.1546 21.4521 67.5025 22.7563 67.2777 24.1954C66.9404 26.6464 66.3782 28.8726 65.861 30.0644C65.2989 31.3011 64.9616 32.4254 64.6692 33.4148C64.1521 35.1463 63.8372 36.0907 62.8928 36.9452C60.082 39.5311 57.9683 40.8578 56.5741 40.8578C56.2368 40.8578 55.922 40.7904 55.4498 40.633L51.065 39.1489L52.1443 43.6462C52.2342 43.961 53.0213 46.8392 56.7765 47.8511H56.799C57.8109 48.121 58.8452 48.2559 59.8571 48.2559C59.9471 48.2559 60.4418 48.2784 62.9828 48.4358C64.8491 48.5707 66.2883 50.0548 66.3782 51.8987C66.9179 64.4911 66.3557 67.999 66.1309 68.8534C65.6362 69.9778 61.8584 77.6681 60.3518 80.299C59.9246 81.0636 59.4524 81.8281 58.9352 82.6376L56.4617 86.5503H71.9773L72.1347 84.1442C72.1347 84.1217 72.2697 82.098 72.4046 79.1073C76.1598 82.1654 79.0381 84.459 79.083 84.504L80.2299 85.4259L81.624 84.8863C81.7589 84.8188 85.1544 83.4696 88.5723 81.9406C90.6186 80.9961 92.2601 80.1866 93.4069 79.512C94.7336 78.77 97.1621 77.3758 96.555 75.0147C96.1502 73.3732 90.2363 64.0638 88.4149 61.2306C86.0089 57.4753 80.05 48.3458 76.8344 44.6581C75.4627 43.1065 74.0686 41.7573 72.5845 40.5655C74.2035 38.3619 75.3953 36.1357 76.1598 34.4492C77.9587 30.5815 79.2629 23.8581 78.3185 20.665V20.6201L78.296 20.5976C78.296 20.5976 78.2286 20.3502 78.0712 19.923C77.7339 19.001 77.3516 18.0791 76.9693 17.2021C75.9349 14.841 74.5183 11.648 72.2697 9.4443C66.2883 3.6428 57.9683 0.112432 50.0081 0C49.9331 0 49.8582 0 49.7832 0C45.6457 0 42.4976 1.664 40.3839 4.99199ZM49.9856 2.54097C57.6085 2.6534 65.2989 6.22874 70.4932 11.2657C72.3821 13.1096 73.6863 16.0553 74.6307 18.214C75.1029 19.3158 75.4627 20.2378 75.6651 20.7999C75.8 21.1597 75.8675 21.3846 75.8675 21.3846C76.5421 23.6782 75.5976 29.6146 73.8437 33.3923C73.1466 34.8989 71.4826 38.2494 68.8967 41.0602C70.9879 42.3869 72.9442 44.0734 74.9231 46.3445C80.005 52.146 93.7217 74.1602 94.0815 75.6219C94.4413 77.061 80.6796 82.5027 80.6796 82.5027C80.6796 82.5027 75.6426 78.4776 70.111 73.9354C69.8636 79.512 69.5938 83.9868 69.5938 83.9868H61.0939C61.6036 83.1923 62.0908 82.3828 62.5555 81.5583C64.197 78.725 68.4245 70.0902 68.5594 69.7079C69.4139 66.8746 69.189 57.7676 68.9192 51.7863C68.7843 48.6382 66.3107 46.1197 63.1626 45.8948C61.6111 45.8049 60.2169 45.7149 59.8571 45.7149C59.0926 45.7149 58.2831 45.6025 57.4286 45.4001C55.0226 44.7255 54.6178 43.039 54.6178 43.039C55.2249 43.2414 55.8546 43.3988 56.5741 43.3988C58.373 43.3988 60.7116 42.4319 64.6243 38.8341C66.9179 36.6979 66.7605 34.2468 68.1771 31.1212C68.8292 29.6821 69.4364 27.2086 69.8186 24.5777C70.1559 22.2841 72.0898 20.6425 74.3159 20.6425C74.6457 20.6425 74.983 20.68 75.3278 20.755C74.6757 20.1029 73.4614 19.1135 71.7075 18.5063C71.2578 18.3489 69.234 17.6968 66.783 17.4944C66.3632 17.4645 65.9285 17.4495 65.4788 17.4495C63.7248 17.4495 61.8584 17.7418 60.2619 18.6637C55.3599 21.497 52.3917 29.1649 51.065 32.8527C47.6245 42.4769 42.7 43.9385 38.8548 43.9385C37.3707 43.9385 36.0665 43.7136 35.0546 43.6687C35.0246 43.6687 34.9947 43.6687 34.9647 43.6687C33.9978 43.6687 33.2107 44.4107 33.1433 45.3326C33.1283 45.4826 33.1358 45.64 33.1658 45.8049C33.638 48.3233 34.2676 52.236 33.9977 53.9C33.6155 56.2386 31.884 59.4541 29.8827 62.5573C28.8933 64.0863 27.3867 65.2331 25.6328 65.7503C23.3617 66.3799 21.2254 67.2344 19.539 68.3363C18.5945 68.9209 14.3671 71.5968 13.0404 74.2502C17.6951 71.4169 28.9158 70.495 33.7504 70.495C34.6049 70.495 35.257 70.5174 35.6617 70.5849C51.4697 72.6761 60.869 73.4182 60.869 73.4182C60.3743 74.7674 51.2673 81.7157 51.2673 81.7157C51.2673 81.7157 33.4581 83.1548 23.8788 83.9868C22.867 84.0768 21.945 84.1667 21.1355 84.2342C19.6664 84.3691 18.2572 84.4366 16.9081 84.4366C13.3102 84.4366 10.1846 83.9868 7.77857 83.1773C5.14766 82.7726 2.89902 81.4458 2.60669 78.7475C2.5917 78.6425 2.57671 78.5376 2.56171 78.4327C2.33685 74.9698 4.67545 68.5162 11.9386 56.5759C16.8181 48.5482 20.3934 43.5112 22.867 40.3407C22.882 40.3257 22.8969 40.3107 22.9119 40.2957C26.2849 36.0008 27.6566 35.2362 27.6566 35.2362C27.9489 35.0788 28.3087 34.8989 28.7359 34.719C28.9458 34.6291 29.1707 34.5392 29.4105 34.4492C29.6504 34.3443 29.9052 34.2468 30.175 34.1569C31.3443 33.7296 32.7835 33.2799 34.2901 32.9426C34.6199 32.8677 34.9572 32.8002 35.302 32.7402H35.3244C36.4713 32.5154 37.2808 31.5485 37.3257 30.4017C37.4832 25.0049 38.9897 17.337 39.5969 14.7736C41.081 8.63479 42.5651 2.54097 49.7832 2.54097C49.8432 2.54097 49.9107 2.54097 49.9856 2.54097Z" fill="#172B00"/>
<path d="M2.56236 78.4318C2.57735 78.5367 2.59234 78.6417 2.60733 78.7466C2.89965 81.445 5.14829 82.7717 7.77921 83.1764C11.0847 84.2783 15.7844 84.728 21.1362 84.2333C21.9457 84.1658 22.8676 84.0759 23.8795 83.986C33.4587 83.154 51.268 81.7148 51.268 81.7148C51.268 81.7148 60.375 76.0033 60.8697 74.6541C60.8697 74.6541 59.543 74.3618 57.047 73.912C55.3605 73.5972 53.1343 73.215 50.391 72.7652C46.4559 72.1131 41.4864 71.3486 35.6624 70.584C33.0764 70.2243 18.5052 70.9213 13.041 74.2493C14.3677 71.5959 18.5952 68.92 19.5396 68.3129C21.2261 67.2336 23.3623 66.3791 25.6334 65.7495C27.3874 65.2323 28.894 64.0855 29.8834 62.5564C31.8847 59.4533 33.6161 56.2377 33.9984 53.8991C34.2682 52.2351 33.6386 48.3225 33.1664 45.804C33.1364 45.6391 33.1289 45.4817 33.1439 45.3318C33.2338 44.3873 34.0434 43.6228 35.0552 43.6678C38.698 43.8477 46.2985 46.1863 51.0656 32.8518C52.3923 29.164 55.3605 21.4962 60.2625 18.6629C62.2638 17.5161 64.6699 17.3362 66.7836 17.4936C69.2346 17.696 71.2584 18.3481 71.7081 18.5055C73.4621 19.1126 74.6763 20.102 75.3284 20.7541C74.9836 20.6792 74.6463 20.6417 74.3165 20.6417C72.0904 20.6417 70.1566 22.2832 69.8193 24.5768C69.437 27.2077 68.8299 29.6812 68.1778 31.1203C66.7611 34.246 66.9185 36.697 64.6249 38.8332C59.1607 43.8702 56.7322 43.7577 54.6184 43.0382C54.6184 43.0382 55.0232 44.7246 57.4292 45.3992C58.2837 45.6016 59.0932 45.714 59.8578 45.714C60.2176 45.714 61.6117 45.804 63.1633 45.8939C66.3114 46.1188 68.7849 48.6373 68.9198 51.7854C69.1896 57.7668 69.4145 66.8738 68.56 69.7071C68.4251 70.0893 64.1977 78.7241 62.5561 81.5574C62.0914 82.3819 61.6042 83.1914 61.0945 83.986H69.5944C69.5944 83.986 69.8642 79.5112 70.1116 73.9345C75.6432 78.4768 80.6802 82.5018 80.6802 82.5018C80.6802 82.5018 94.4419 77.0601 94.0821 75.621C93.7223 74.1594 80.0056 52.1452 74.9237 46.3437C72.9449 44.0725 70.9886 42.3861 68.8973 41.0594C71.4833 38.2486 73.1473 34.8981 73.8443 33.3915C75.5983 29.6138 76.5427 23.6773 75.8681 21.3837C75.8681 21.3837 75.8006 21.1589 75.6657 20.7991C75.4634 20.2369 75.1036 19.315 74.6314 18.2131C73.6869 16.0544 72.3827 13.1087 70.4939 11.2648C65.2995 6.22787 57.6091 2.65253 49.9862 2.5401C42.5882 2.42766 41.0816 8.56646 39.5975 14.7727C38.9904 17.3362 37.4838 25.004 37.3264 30.4008C37.2814 31.5476 36.4719 32.5145 35.3251 32.7394H35.3026C34.9578 32.7993 34.6205 32.8668 34.2907 32.9417C32.7841 33.279 31.345 33.7288 30.1757 34.156C29.9058 34.246 29.651 34.3434 29.4112 34.4483C29.1713 34.5383 28.9464 34.6282 28.7366 34.7182C28.3093 34.8981 27.9495 35.078 27.6572 35.2354C27.6572 35.2354 26.2855 35.9999 22.9126 40.2948C22.8976 40.3098 22.8826 40.3248 22.8676 40.3398C20.3941 43.5104 16.8188 48.5473 11.9392 56.575C4.67608 68.5153 2.33749 74.9689 2.56236 78.4318Z" fill="url(#paint0_linear_83_296)"/>
<path style="mix-blend-mode:multiply" d="M19.5389 68.3356C21.2254 67.2338 23.3616 66.3793 25.6328 65.7497C27.3867 65.2325 28.8933 64.0857 29.8827 62.5566C31.884 59.4535 33.6154 56.238 33.9977 53.8994C34.2675 52.2354 33.6379 48.3227 33.1657 45.8042C33.1357 45.6393 33.1282 45.4819 33.1432 45.332C32.5136 47.3783 32.5361 50.4365 31.884 52.3028C28.1512 63.5011 20.2135 67.5261 19.5389 68.3356Z" fill="url(#paint1_linear_83_296)"/>
<path style="mix-blend-mode:multiply" d="M2.56171 78.4333C2.5767 78.5383 2.59169 78.6432 2.60668 78.7481C2.89901 81.4465 5.14765 82.7732 7.77856 83.178C11.0841 84.2798 15.7837 84.7295 21.1355 84.2348C21.945 84.1674 22.867 84.0774 23.8788 83.9875C33.4581 83.1555 51.2673 81.7163 51.2673 81.7163C51.2673 81.7163 54.8202 76.9042 57.0463 73.9135C55.3598 73.5987 53.1337 73.2165 50.3903 72.7667C48.3216 75.69 45.241 77.7812 38.7649 78.6582C29.343 79.9399 22.3722 81.2891 14.0972 80.4346C9.6899 79.9849 6.45186 77.9836 6.78915 75.2402C7.89099 65.5486 17.785 47.402 22.867 40.3413C20.3934 43.5119 16.8181 48.5489 11.9386 56.5765C4.67543 68.5168 2.33684 74.9704 2.56171 78.4333Z" fill="url(#paint2_linear_83_296)"/>
<path d="M77.9587 84.2558H33.8178C33.2332 84.2558 32.761 83.7836 32.761 83.1989V82.5468C32.761 81.9622 33.2332 81.5125 33.8178 81.5125H77.9587C78.5434 81.5125 79.0156 81.9622 79.0156 82.5468V83.1989C79.0156 83.7836 78.5434 84.2558 77.9587 84.2558Z" fill="white"/>
<path d="M68.6266 84.2558H23.1366C22.7318 84.2558 22.3945 83.9185 22.3945 83.5137V82.8841C22.3945 82.1196 23.0241 81.5125 23.7887 81.5125H68.6266C68.6416 81.5125 68.6491 81.5125 68.6491 81.5125V84.2333C68.6491 84.2483 68.6416 84.2558 68.6266 84.2558Z" fill="white"/>
<path d="M68.6266 84.2558H23.1366C22.7318 84.2558 22.3945 83.9185 22.3945 83.5137V82.8841C22.3945 82.1196 23.0241 81.5125 23.7887 81.5125H68.6266C68.6416 81.5125 68.6491 81.5125 68.6491 81.5125V84.2333C68.6491 84.2483 68.6416 84.2558 68.6266 84.2558Z" fill="white"/>
<path d="M102.761 84.2569H50.7723C49.7155 84.2569 48.9959 83.1551 49.4231 82.1881L64.7589 46.7495C65.0062 46.2099 65.5234 45.8726 66.1305 45.8726H118.119C119.176 45.8726 119.896 46.9519 119.468 47.9413L104.133 83.3574C103.885 83.8971 103.368 84.2569 102.761 84.2569Z" fill="url(#paint3_linear_83_296)"/>
<path d="M102.761 84.2569H50.7723C49.7155 84.2569 48.9959 83.1551 49.4231 82.1881L64.7589 46.7495C65.0062 46.2099 65.5234 45.8726 66.1305 45.8726H118.119C119.176 45.8726 119.896 46.9519 119.468 47.9413L104.133 83.3574C103.885 83.8971 103.368 84.2569 102.761 84.2569Z" fill="white"/>
<path d="M105.302 84.2566H53.3137C52.2568 84.2566 51.5373 83.1548 51.9645 82.1879L67.3003 46.7493C67.5476 46.2096 68.0648 45.8723 68.6719 45.8723H120.661C121.717 45.8723 122.437 46.9517 122.01 47.9411L106.674 83.3572C106.427 83.8969 105.909 84.2566 105.302 84.2566Z" fill="url(#paint4_linear_83_296)"/>
<path style="mix-blend-mode:multiply" d="M54.6182 43.0393C54.6182 43.0393 55.8774 45.4229 58.8906 44.8157C64.9619 43.624 68.8071 39.2391 70.8759 33.7299C72.1576 30.3345 72.6073 27.2763 73.0571 25.0052C73.5518 22.3518 75.3282 20.7553 75.3282 20.7553C74.9834 20.6803 74.6461 20.6428 74.3163 20.6428C72.0901 20.6428 70.1563 22.2843 69.819 24.5779C69.4367 27.2089 68.8296 29.6824 68.1775 31.1215C66.7609 34.2471 66.9183 36.6981 64.6246 38.8343C59.1604 43.8713 56.7319 43.7589 54.6182 43.0393Z" fill="url(#paint5_linear_83_296)"/>
<path style="mix-blend-mode:multiply" d="M35.0549 43.668C38.6977 43.8479 46.2981 46.1864 51.0653 32.852C52.3919 29.1642 55.3602 21.4963 60.2622 18.6631C62.2635 17.5162 64.6695 17.3364 66.7833 17.4938C53.4938 14.9303 50.8629 24.7344 45.5111 33.9988C41.1487 41.5542 36.6964 42.4537 35.0549 43.668Z" fill="url(#paint6_linear_83_296)"/>
<path d="M42.3625 54.3719C42.5199 51.5836 42.6548 48.7278 42.6323 46.9964C42.6323 46.749 42.8122 46.5466 43.0596 46.5466C43.3069 46.5466 43.5093 46.7265 43.5093 46.9739C43.5318 48.7503 43.3744 51.6286 43.2395 54.4169C43.1046 56.8454 42.9921 59.3864 42.9921 61.0279C42.9921 61.2528 42.7897 61.4551 42.5424 61.4551C42.295 61.4551 42.1152 61.2528 42.1152 61.0279C42.1152 59.3639 42.2276 56.9354 42.3625 54.3719Z" fill="url(#paint7_linear_83_296)"/>
<path d="M53.988 47.8521C53.988 47.6047 54.1679 47.4023 54.4153 47.4023C54.6626 47.4023 54.865 47.5822 54.865 47.8296C54.91 50.6629 54.7751 53.8335 54.6402 56.9141C54.5727 58.2858 54.5052 59.6125 54.4603 60.8717C54.4603 61.1191 54.2579 61.299 54.033 61.299C54.033 61.299 54.0255 61.299 54.0105 61.299C53.7857 61.299 53.5833 61.0741 53.5833 60.8492C53.6283 59.5675 53.6957 58.2408 53.7632 56.8691C53.8981 53.811 54.033 50.6629 53.988 47.8521Z" fill="url(#paint8_linear_83_296)"/>
<defs>
<linearGradient id="paint0_linear_83_296" x1="99.3455" y1="71.3589" x2="82.687" y2="-8.34066" gradientUnits="userSpaceOnUse">
<stop stop-color="#DDFFB5"/>
<stop offset="1" stop-color="#315A00"/>
</linearGradient>
<linearGradient id="paint1_linear_83_296" x1="44.9167" y1="70.7979" x2="46.0522" y2="44.4503" gradientUnits="userSpaceOnUse">
<stop stop-color="#C2FF7A" stop-opacity="0"/>
<stop offset="1" stop-color="#B9FF66"/>
</linearGradient>
<linearGradient id="paint2_linear_83_296" x1="1.73264" y1="52.9231" x2="22.1695" y2="115.868" gradientUnits="userSpaceOnUse">
<stop stop-color="#F4D63B" stop-opacity="0"/>
<stop offset="1" stop-color="#1E3700"/>
</linearGradient>
<linearGradient id="paint3_linear_83_296" x1="74.974" y1="41.9208" x2="64.5064" y2="82.954" gradientUnits="userSpaceOnUse">
<stop stop-color="#C4FF7F"/>
<stop offset="1" stop-color="#64A21B"/>
</linearGradient>
<linearGradient id="paint4_linear_83_296" x1="77.5158" y1="41.9205" x2="67.0482" y2="82.9538" gradientUnits="userSpaceOnUse">
<stop stop-color="#B9FF66"/>
<stop offset="1" stop-color="#132400"/>
</linearGradient>
<linearGradient id="paint5_linear_83_296" x1="92.7754" y1="51.2142" x2="72.7463" y2="6.05409" gradientUnits="userSpaceOnUse">
<stop stop-color="#F4D63B" stop-opacity="0"/>
<stop offset="1" stop-color="#B9FF66"/>
</linearGradient>
<linearGradient id="paint6_linear_83_296" x1="42.0214" y1="6.14936" x2="32.6259" y2="47.8905" gradientUnits="userSpaceOnUse">
<stop stop-color="#F4D63B" stop-opacity="0"/>
<stop offset="1" stop-color="#273F0B"/>
</linearGradient>
<linearGradient id="paint7_linear_83_296" x1="-37.279" y1="48.6853" x2="-36.1153" y2="67.186" gradientUnits="userSpaceOnUse">
<stop stop-color="#79B335"/>
<stop offset="1" stop-color="#B9FF66"/>
</linearGradient>
<linearGradient id="paint8_linear_83_296" x1="-21.9636" y1="47.7214" x2="-20.8009" y2="66.2118" gradientUnits="userSpaceOnUse">
<stop stop-color="#79B335"/>
<stop offset="1" stop-color="#B9FF66"/>
</linearGradient>
</defs>
</svg>
